<?xml version="1.0" encoding="UTF-8" standalone="no"?>
<!DOCTYPE svg PUBLIC "-//W3C//DTD SVG 1.1//EN"
 "http://www.w3.org/Graphics/SVG/1.1/DTD/svg11.dtd">
<!-- Generated by graphviz version 2.43.0 (0)
 -->
<!-- Title: G Pages: 1 -->
<svg width="468pt" height="596pt"
 viewBox="0.00 0.00 468.49 595.69" xmlns="http://www.w3.org/2000/svg" xmlns:xlink="http://www.w3.org/1999/xlink">
<g id="graph0" class="graph" transform="scale(1 1) rotate(0) translate(4 591.69)">
<title>G</title><style>.edge>path:hover{stroke-width:8}</style>
<polygon fill="white" stroke="transparent" points="-4,4 -4,-591.69 464.49,-591.69 464.49,4 -4,4"/>
<!-- citypulse_etl_cli -->
<g id="node1" class="node">
<title>citypulse_etl_cli</title><style>.edge>path:hover{stroke-width:8}</style>
<ellipse fill="#9d4343" stroke="black" cx="197.33" cy="-21.21" rx="57.97" ry="21.43"/>
<text text-anchor="middle" x="197.33" y="-24.21" font-family="Helvetica,sans-Serif" font-size="10.00" fill="#ffffff">citypulse_etl.</text>
<text text-anchor="middle" x="197.33" y="-13.21" font-family="Helvetica,sans-Serif" font-size="10.00" fill="#ffffff">cli</text>
</g>
<!-- citypulse_etl_database -->
<g id="node2" class="node">
<title>citypulse_etl_database</title><style>.edge>path:hover{stroke-width:8}</style>
<ellipse fill="#c82323" stroke="black" cx="154.33" cy="-256.49" rx="57.97" ry="21.43"/>
<text text-anchor="middle" x="154.33" y="-259.49" font-family="Helvetica,sans-Serif" font-size="10.00" fill="#ffffff">citypulse_etl.</text>
<text text-anchor="middle" x="154.33" y="-248.49" font-family="Helvetica,sans-Serif" font-size="10.00" fill="#ffffff">database</text>
</g>
<!-- citypulse_etl_metadata -->
<g id="node3" class="node">
<title>citypulse_etl_metadata</title><style>.edge>path:hover{stroke-width:8}</style>
<ellipse fill="#a83838" stroke="black" cx="197.33" cy="-99.64" rx="57.97" ry="21.43"/>
<text text-anchor="middle" x="197.33" y="-102.64" font-family="Helvetica,sans-Serif" font-size="10.00" fill="#ffffff">citypulse_etl.</text>
<text text-anchor="middle" x="197.33" y="-91.64" font-family="Helvetica,sans-Serif" font-size="10.00" fill="#ffffff">metadata</text>
</g>
<!-- citypulse_etl_database&#45;&gt;citypulse_etl_metadata -->
<g id="edge1" class="edge">
<title>citypulse_etl_database&#45;&gt;citypulse_etl_metadata</title><style>.edge>path:hover{stroke-width:8}</style>
<path fill="none" stroke="black" d="M149.47,-235.16C146.72,-219.03 145.39,-196.41 154.33,-179.07"/>
<path fill="none" stroke="black" d="M154.33,-177.07C162.56,-161.08 172.35,-143.57 180.51,-129.35"/>
<polygon fill="#c82323" stroke="black" points="183.63,-130.94 185.6,-120.53 177.57,-127.44 183.63,-130.94"/>
</g>
<!-- citypulse_etl_models -->
<g id="node4" class="node">
<title>citypulse_etl_models</title><style>.edge>path:hover{stroke-width:8}</style>
<ellipse fill="#ae1e1e" stroke="black" cx="240.33" cy="-178.07" rx="57.97" ry="21.43"/>
<text text-anchor="middle" x="240.33" y="-181.07" font-family="Helvetica,sans-Serif" font-size="10.00" fill="#ffffff">citypulse_etl.</text>
<text text-anchor="middle" x="240.33" y="-170.07" font-family="Helvetica,sans-Serif" font-size="10.00" fill="#ffffff">models</text>
</g>
<!-- citypulse_etl_database&#45;&gt;citypulse_etl_models -->
<g id="edge2" class="edge">
<title>citypulse_etl_database&#45;&gt;citypulse_etl_models</title><style>.edge>path:hover{stroke-width:8}</style>
<path fill="none" stroke="black" d="M175.58,-236.6C186.33,-227.05 199.54,-215.31 211.22,-204.93"/>
<polygon fill="#c82323" stroke="black" points="213.86,-207.26 219.01,-198.01 209.21,-202.03 213.86,-207.26"/>
</g>
<!-- citypulse_etl_pipeline -->
<g id="node5" class="node">
<title>citypulse_etl_pipeline</title><style>.edge>path:hover{stroke-width:8}</style>
<ellipse fill="#913030" stroke="black" cx="331.33" cy="-99.64" rx="57.97" ry="21.43"/>
<text text-anchor="middle" x="331.33" y="-102.64" font-family="Helvetica,sans-Serif" font-size="10.00" fill="#ffffff">citypulse_etl.</text>
<text text-anchor="middle" x="331.33" y="-91.64" font-family="Helvetica,sans-Serif" font-size="10.00" fill="#ffffff">pipeline</text>
</g>
<!-- citypulse_etl_database&#45;&gt;citypulse_etl_pipeline -->
<g id="edge3" class="edge">
<title>citypulse_etl_database&#45;&gt;citypulse_etl_pipeline</title><style>.edge>path:hover{stroke-width:8}</style>
<path fill="none" stroke="black" d="M154.33,-177.07C159.97,-166.11 163.01,-163.6 173.33,-156.85 191.02,-145.29 239.47,-128.76 278.09,-116.62"/>
<polygon fill="#c82323" stroke="black" points="279.17,-119.95 287.68,-113.63 277.09,-113.26 279.17,-119.95"/>
</g>
<!-- citypulse_etl_metadata&#45;&gt;citypulse_etl_cli -->
<g id="edge4" class="edge">
<title>citypulse_etl_metadata&#45;&gt;citypulse_etl_cli</title><style>.edge>path:hover{stroke-width:8}</style>
<path fill="none" stroke="black" d="M197.33,-78.16C197.33,-70.3 197.33,-61.16 197.33,-52.57"/>
<polygon fill="#a83838" stroke="black" points="200.83,-52.49 197.33,-42.49 193.83,-52.49 200.83,-52.49"/>
</g>
<!-- citypulse_etl_models&#45;&gt;citypulse_etl_cli -->
<g id="edge5" class="edge">
<title>citypulse_etl_models&#45;&gt;citypulse_etl_cli</title><style>.edge>path:hover{stroke-width:8}</style>
<path fill="none" stroke="black" d="M193.25,-165.53C170.03,-157.21 144.1,-143.35 130.33,-120.85 120.48,-104.77 122.36,-95.52 130.33,-78.43 136.42,-65.36 147.21,-54.25 158.38,-45.45"/>
<polygon fill="#ae1e1e" stroke="black" points="160.54,-48.2 166.51,-39.45 156.38,-42.57 160.54,-48.2"/>
</g>
<!-- citypulse_etl_models&#45;&gt;citypulse_etl_metadata -->
<g id="edge6" class="edge">
<title>citypulse_etl_models&#45;&gt;citypulse_etl_metadata</title><style>.edge>path:hover{stroke-width:8}</style>
<path fill="none" stroke="black" d="M229.03,-156.99C224.29,-148.56 218.69,-138.6 213.52,-129.42"/>
<polygon fill="#ae1e1e" stroke="black" points="216.5,-127.58 208.55,-120.59 210.4,-131.02 216.5,-127.58"/>
</g>
<!-- citypulse_etl_models&#45;&gt;citypulse_etl_pipeline -->
<g id="edge7" class="edge">
<title>citypulse_etl_models&#45;&gt;citypulse_etl_pipeline</title><style>.edge>path:hover{stroke-width:8}</style>
<path fill="none" stroke="black" d="M262.82,-158.17C274.39,-148.46 288.66,-136.48 301.17,-125.97"/>
<polygon fill="#ae1e1e" stroke="black" points="303.68,-128.43 309.09,-119.31 299.18,-123.07 303.68,-128.43"/>
</g>
<!-- citypulse_etl_pipeline&#45;&gt;citypulse_etl_cli -->
<g id="edge8" class="edge">
<title>citypulse_etl_pipeline&#45;&gt;citypulse_etl_cli</title><style>.edge>path:hover{stroke-width:8}</style>
<path fill="none" stroke="black" d="M301.25,-81.49C282.16,-70.6 257.26,-56.4 236.61,-44.62"/>
<polygon fill="#913030" stroke="black" points="238.18,-41.49 227.76,-39.57 234.71,-47.57 238.18,-41.49"/>
</g>
<!-- citypulse_etl_utils -->
<g id="node6" class="node">
<title>citypulse_etl_utils</title><style>.edge>path:hover{stroke-width:8}</style>
<ellipse fill="#d02424" stroke="black" cx="326.33" cy="-256.49" rx="57.97" ry="21.43"/>
<text text-anchor="middle" x="326.33" y="-259.49" font-family="Helvetica,sans-Serif" font-size="10.00" fill="#ffffff">citypulse_etl.</text>
<text text-anchor="middle" x="326.33" y="-248.49" font-family="Helvetica,sans-Serif" font-size="10.00" fill="#ffffff">utils</text>
</g>
<!-- citypulse_etl_utils&#45;&gt;citypulse_etl_metadata -->
<g id="edge9" class="edge">
<title>citypulse_etl_utils&#45;&gt;citypulse_etl_metadata</title><style>.edge>path:hover{stroke-width:8}</style>
<path fill="none" stroke="black" d="M358.51,-238.45C380.77,-224.19 404.53,-202.46 393.33,-179.07"/>
<path fill="none" stroke="black" d="M393.33,-177.07C386.76,-163.35 305.82,-135.15 250.03,-117.1"/>
<polygon fill="#d02424" stroke="black" points="250.87,-113.7 240.28,-113.97 248.73,-120.36 250.87,-113.7"/>
</g>
<!-- citypulse_etl_utils&#45;&gt;citypulse_etl_models -->
<g id="edge10" class="edge">
<title>citypulse_etl_utils&#45;&gt;citypulse_etl_models</title><style>.edge>path:hover{stroke-width:8}</style>
<path fill="none" stroke="black" d="M305.07,-236.6C294.32,-227.05 281.11,-215.31 269.43,-204.93"/>
<polygon fill="#d02424" stroke="black" points="271.44,-202.03 261.64,-198.01 266.79,-207.26 271.44,-202.03"/>
</g>
<!-- citypulse_etl_utils&#45;&gt;citypulse_etl_pipeline -->
<g id="edge11" class="edge">
<title>citypulse_etl_utils&#45;&gt;citypulse_etl_pipeline</title><style>.edge>path:hover{stroke-width:8}</style>
<path fill="none" stroke="black" d="M371.89,-243.1C403.74,-231.52 439.27,-211.13 431.33,-179.07"/>
<path fill="none" stroke="black" d="M431.33,-177.07C424.9,-151.16 401.84,-132.57 379.47,-120.22"/>
<polygon fill="#d02424" stroke="black" points="380.81,-116.97 370.32,-115.47 377.58,-123.18 380.81,-116.97"/>
</g>
<!-- dotenv -->
<g id="node7" class="node">
<title>dotenv</title><style>.edge>path:hover{stroke-width:8}</style>
<ellipse fill="#a9c247" stroke="black" cx="189.33" cy="-414.7" rx="29.37" ry="18"/>
<text text-anchor="middle" x="189.33" y="-412.2" font-family="Helvetica,sans-Serif" font-size="10.00" fill="#000000">dotenv</text>
</g>
<!-- dotenv&#45;&gt;citypulse_etl_database -->
<g id="edge12" class="edge">
<title>dotenv&#45;&gt;citypulse_etl_database</title><style>.edge>path:hover{stroke-width:8}</style>
<path fill="none" stroke="black" d="M171.87,-399.95C155.35,-385.28 132.97,-360.38 132.33,-332.71"/>
</g>
<!-- dotenv&#45;&gt;citypulse_etl_utils -->
<g id="edge13" class="edge">
<title>dotenv&#45;&gt;citypulse_etl_utils</title><style>.edge>path:hover{stroke-width:8}</style>
<path fill="none" stroke="black" d="M210.1,-401.71C219.03,-396.65 229.63,-390.77 239.33,-385.71 281.49,-363.67 322.69,-379.29 332.33,-332.71"/>
<path fill="none" stroke="black" d="M332.33,-330.71C335.2,-316.81 334.44,-301.16 332.67,-287.91"/>
<polygon fill="#a9c247" stroke="black" points="336.1,-287.21 331.08,-277.88 329.19,-288.31 336.1,-287.21"/>
</g>
<!-- pandas -->
<g id="node8" class="node">
<title>pandas</title><style>.edge>path:hover{stroke-width:8}</style>
<ellipse fill="#26d96e" stroke="black" cx="391.33" cy="-331.71" rx="30.72" ry="18"/>
<text text-anchor="middle" x="391.33" y="-329.21" font-family="Helvetica,sans-Serif" font-size="10.00" fill="#000000">pandas</text>
</g>
<!-- pandas&#45;&gt;citypulse_etl_metadata -->
<g id="edge14" class="edge">
<title>pandas&#45;&gt;citypulse_etl_metadata</title><style>.edge>path:hover{stroke-width:8}</style>
<path fill="none" stroke="black" d="M397.66,-313.84C402.8,-299.19 409.62,-277.27 412.33,-257.49"/>
<path fill="none" stroke="black" d="M412.33,-255.49C417.08,-220.82 408.44,-210.63 393.33,-179.07"/>
</g>
<!-- pandas&#45;&gt;citypulse_etl_models -->
<g id="edge15" class="edge">
<title>pandas&#45;&gt;citypulse_etl_models</title><style>.edge>path:hover{stroke-width:8}</style>
<path fill="none" stroke="black" d="M364.12,-323.04C322.06,-310.4 245.51,-283.94 240.33,-257.49"/>
</g>
<!-- pandas&#45;&gt;citypulse_etl_pipeline -->
<g id="edge16" class="edge">
<title>pandas&#45;&gt;citypulse_etl_pipeline</title><style>.edge>path:hover{stroke-width:8}</style>
<path fill="none" stroke="black" d="M412.33,-255.49C417.08,-220.82 439.75,-213.04 431.33,-179.07"/>
</g>
<!-- requests -->
<g id="node9" class="node">
<title>requests</title><style>.edge>path:hover{stroke-width:8}</style>
<ellipse fill="#3370cc" stroke="black" cx="387.33" cy="-414.7" rx="34.96" ry="18"/>
<text text-anchor="middle" x="387.33" y="-412.2" font-family="Helvetica,sans-Serif" font-size="10.00" fill="#ffffff">requests</text>
</g>
<!-- requests&#45;&gt;citypulse_etl_pipeline -->
<g id="edge17" class="edge">
<title>requests&#45;&gt;citypulse_etl_pipeline</title><style>.edge>path:hover{stroke-width:8}</style>
<path fill="none" stroke="black" d="M403.24,-398.62C418.12,-383.48 439.61,-358.73 450.33,-332.71"/>
</g>
<!-- requests&#45;&gt;citypulse_etl_utils -->
<g id="edge18" class="edge">
<title>requests&#45;&gt;citypulse_etl_utils</title><style>.edge>path:hover{stroke-width:8}</style>
<path fill="none" stroke="black" d="M367.94,-399.59C349.97,-384.63 326.78,-359.5 332.33,-332.71"/>
</g>
<!-- sqlalchemy -->
<g id="node10" class="node">
<title>sqlalchemy</title><style>.edge>path:hover{stroke-width:8}</style>
<ellipse fill="#c006ef" stroke="black" cx="291.33" cy="-414.7" rx="42.94" ry="18"/>
<text text-anchor="middle" x="291.33" y="-412.2" font-family="Helvetica,sans-Serif" font-size="10.00" fill="#ffffff">sqlalchemy</text>
</g>
<!-- sqlalchemy&#45;&gt;citypulse_etl_database -->
<g id="edge19" class="edge">
<title>sqlalchemy&#45;&gt;citypulse_etl_database</title><style>.edge>path:hover{stroke-width:8}</style>
<path fill="none" stroke="black" d="M264.12,-400.53C230.56,-383.53 177.09,-353.63 170.33,-332.71"/>
<path fill="none" stroke="black" d="M170.33,-330.71C165.88,-316.93 162.27,-301.3 159.62,-288.03"/>
<polygon fill="#c006ef" stroke="black" points="163.01,-287.14 157.7,-277.97 156.14,-288.45 163.01,-287.14"/>
</g>
<!-- sqlalchemy&#45;&gt;citypulse_etl_models -->
<g id="edge20" class="edge">
<title>sqlalchemy&#45;&gt;citypulse_etl_models</title><style>.edge>path:hover{stroke-width:8}</style>
<path fill="none" stroke="black" d="M170.33,-330.71C156.49,-287.87 248.99,-301.67 240.33,-257.49"/>
<path fill="none" stroke="black" d="M240.33,-255.49C237.4,-240.55 237.09,-223.65 237.65,-209.55"/>
<polygon fill="#c006ef" stroke="black" points="241.16,-209.56 238.22,-199.39 234.17,-209.18 241.16,-209.56"/>
</g>
<!-- sqlalchemy&#45;&gt;citypulse_etl_pipeline -->
<g id="edge21" class="edge">
<title>sqlalchemy&#45;&gt;citypulse_etl_pipeline</title><style>.edge>path:hover{stroke-width:8}</style>
<path fill="none" stroke="black" d="M315.92,-399.77C324.49,-395.1 334.24,-389.99 343.33,-385.71 391.32,-363.05 431.43,-382.3 450.33,-332.71"/>
<path fill="none" stroke="black" d="M450.33,-330.71C474.51,-267.24 447.67,-244.99 431.33,-179.07"/>
</g>
<!-- sqlalchemy_exc -->
<g id="node11" class="node">
<title>sqlalchemy_exc</title><style>.edge>path:hover{stroke-width:8}</style>
<ellipse fill="#a947c2" stroke="black" cx="370.33" cy="-497.69" rx="54.31" ry="18"/>
<text text-anchor="middle" x="370.33" y="-495.19" font-family="Helvetica,sans-Serif" font-size="10.00" fill="#ffffff">sqlalchemy.exc</text>
</g>
<!-- sqlalchemy_exc&#45;&gt;citypulse_etl_pipeline -->
<g id="edge22" class="edge">
<title>sqlalchemy_exc&#45;&gt;citypulse_etl_pipeline</title><style>.edge>path:hover{stroke-width:8}</style>
<path fill="none" stroke="black" d="M394.83,-481.49C407.75,-472.17 422.66,-459.09 431.33,-443.69 455.87,-400.07 431.27,-378.98 450.33,-332.71"/>
</g>
<!-- sqlalchemy_exc&#45;&gt;sqlalchemy -->
<g id="edge23" class="edge">
<title>sqlalchemy_exc&#45;&gt;sqlalchemy</title><style>.edge>path:hover{stroke-width:8}</style>
<path fill="none" stroke="black" d="M354.34,-480.3C342.73,-468.4 326.86,-452.13 313.95,-438.9"/>
<polygon fill="#a947c2" stroke="black" points="316.24,-436.23 306.75,-431.51 311.23,-441.11 316.24,-436.23"/>
</g>
<!-- sqlalchemy_ext -->
<g id="node12" class="node">
<title>sqlalchemy_ext</title><style>.edge>path:hover{stroke-width:8}</style>
<ellipse fill="#9e4cb3" stroke="black" cx="251.33" cy="-331.71" rx="52.96" ry="18"/>
<text text-anchor="middle" x="251.33" y="-329.21" font-family="Helvetica,sans-Serif" font-size="10.00" fill="#ffffff">sqlalchemy.ext</text>
</g>
<!-- sqlalchemy_ext&#45;&gt;citypulse_etl_models -->
<g id="edge24" class="edge">
<title>sqlalchemy_ext&#45;&gt;citypulse_etl_models</title><style>.edge>path:hover{stroke-width:8}</style>
<path fill="none" stroke="black" d="M249.18,-313.47C247.22,-298.59 244.06,-276.54 240.33,-257.49"/>
</g>
<!-- sqlalchemy_ext_declarative -->
<g id="node13" class="node">
<title>sqlalchemy_ext_declarative</title><style>.edge>path:hover{stroke-width:8}</style>
<ellipse fill="#9849ac" stroke="black" cx="52.33" cy="-414.7" rx="52.15" ry="28.98"/>
<text text-anchor="middle" x="52.33" y="-423.2" font-family="Helvetica,sans-Serif" font-size="10.00" fill="#ffffff">sqlalchemy.</text>
<text text-anchor="middle" x="52.33" y="-412.2" font-family="Helvetica,sans-Serif" font-size="10.00" fill="#ffffff">ext.</text>
<text text-anchor="middle" x="52.33" y="-401.2" font-family="Helvetica,sans-Serif" font-size="10.00" fill="#ffffff">declarative</text>
</g>
<!-- sqlalchemy_ext_declarative&#45;&gt;citypulse_etl_models -->
<g id="edge25" class="edge">
<title>sqlalchemy_ext_declarative&#45;&gt;citypulse_etl_models</title><style>.edge>path:hover{stroke-width:8}</style>
<path fill="none" stroke="black" d="M49.92,-385.68C48.2,-347.2 50.97,-277.91 87.33,-235.28 94.25,-227.16 146.18,-209.08 187.64,-195.6"/>
<polygon fill="#9849ac" stroke="black" points="188.94,-198.86 197.38,-192.46 186.79,-192.2 188.94,-198.86"/>
</g>
<!-- sqlalchemy_orm -->
<g id="node14" class="node">
<title>sqlalchemy_orm</title><style>.edge>path:hover{stroke-width:8}</style>
<ellipse fill="#a731c4" stroke="black" cx="132.33" cy="-569.69" rx="55.17" ry="18"/>
<text text-anchor="middle" x="132.33" y="-567.19" font-family="Helvetica,sans-Serif" font-size="10.00" fill="#ffffff">sqlalchemy.orm</text>
</g>
<!-- sqlalchemy_orm&#45;&gt;citypulse_etl_database -->
<g id="edge26" class="edge">
<title>sqlalchemy_orm&#45;&gt;citypulse_etl_database</title><style>.edge>path:hover{stroke-width:8}</style>
<path fill="none" stroke="black" d="M132.33,-496.69C116.1,-425.64 134.01,-405.57 132.33,-332.71"/>
<path fill="none" stroke="black" d="M132.33,-330.71C132.14,-315.9 136.3,-300.09 141.05,-286.97"/>
<polygon fill="#a731c4" stroke="black" points="144.36,-288.11 144.73,-277.52 137.84,-285.57 144.36,-288.11"/>
</g>
<!-- sqlalchemy_orm&#45;&gt;sqlalchemy_ext_declarative -->
<g id="edge27" class="edge">
<title>sqlalchemy_orm&#45;&gt;sqlalchemy_ext_declarative</title><style>.edge>path:hover{stroke-width:8}</style>
<path fill="none" stroke="black" d="M134.44,-551.48C135.7,-537.16 136.36,-516.34 132.33,-498.69"/>
<path fill="none" stroke="black" d="M132.33,-496.69C127.37,-475 111.3,-456.72 94.85,-443.05"/>
<polygon fill="#a731c4" stroke="black" points="96.82,-440.14 86.8,-436.72 92.49,-445.65 96.82,-440.14"/>
</g>
</g>
</svg>
