<?xml version="1.0" encoding="UTF-8" standalone="no"?>
<!DOCTYPE svg PUBLIC "-//W3C//DTD SVG 1.1//EN"
 "http://www.w3.org/Graphics/SVG/1.1/DTD/svg11.dtd">
<!-- Generated by graphviz version 2.43.0 (0)
 -->
<!-- Title: undefined Pages: 1 -->
<svg width="1581pt" height="1903pt"
 viewBox="0.00 0.00 1580.93 1902.74" xmlns="http://www.w3.org/2000/svg" xmlns:xlink="http://www.w3.org/1999/xlink">
<g id="graph0" class="graph" transform="scale(1 1) rotate(0) translate(28.8 1873.94)">
<title>undefined</title>
<polygon fill="white" stroke="transparent" points="-28.8,28.8 -28.8,-1873.94 1552.13,-1873.94 1552.13,28.8 -28.8,28.8"/>
<text text-anchor="start" x="701.66" y="-8.4" font-family="Helvetica,sans-Serif" font-weight="bold" font-size="12.00">data/database.db</text>
<!-- traffic_sensors -->
<g id="node1" class="node">
<title>traffic_sensors</title>
<path fill="none" stroke="black" d="M12,-600.78C12,-600.78 196,-600.78 196,-600.78 202,-600.78 208,-606.78 208,-612.78 208,-612.78 208,-1083.78 208,-1083.78 208,-1089.78 202,-1095.78 196,-1095.78 196,-1095.78 12,-1095.78 12,-1095.78 6,-1095.78 0,-1089.78 0,-1083.78 0,-1083.78 0,-612.78 0,-612.78 0,-606.78 6,-600.78 12,-600.78"/>
<text text-anchor="start" x="51" y="-1075.38" font-family="Helvetica,sans-Serif" font-weight="bold" font-size="13.00">traffic_sensors</text>
<polyline fill="none" stroke="black" points="0,-1065.78 208,-1065.78 "/>
<text text-anchor="start" x="7" y="-1051.68" font-family="Helvetica,sans-Serif" font-size="12.00">id* </text>
<text text-anchor="start" x="28" y="-1051.68" font-family="Helvetica,sans-Serif" font-weight="bold" font-size="12.00">varchar</text>
<text text-anchor="start" x="7" y="-1034.68" font-family="Helvetica,sans-Serif" font-size="12.00">point_1_street </text>
<text text-anchor="start" x="95" y="-1034.68" font-family="Helvetica,sans-Serif" font-weight="bold" font-size="12.00">varchar</text>
<text text-anchor="start" x="7" y="-1017.68" font-family="Helvetica,sans-Serif" font-size="12.00">duration_in_sec </text>
<text text-anchor="start" x="104" y="-1017.68" font-family="Helvetica,sans-Serif" font-weight="bold" font-size="12.00">float</text>
<text text-anchor="start" x="7" y="-1000.68" font-family="Helvetica,sans-Serif" font-size="12.00">point_1_name </text>
<text text-anchor="start" x="95" y="-1000.68" font-family="Helvetica,sans-Serif" font-weight="bold" font-size="12.00">varchar</text>
<text text-anchor="start" x="7" y="-983.68" font-family="Helvetica,sans-Serif" font-size="12.00">point_1_city </text>
<text text-anchor="start" x="82" y="-983.68" font-family="Helvetica,sans-Serif" font-weight="bold" font-size="12.00">varchar</text>
<text text-anchor="start" x="7" y="-966.68" font-family="Helvetica,sans-Serif" font-size="12.00">point_2_name </text>
<text text-anchor="start" x="95" y="-966.68" font-family="Helvetica,sans-Serif" font-weight="bold" font-size="12.00">varchar</text>
<text text-anchor="start" x="7" y="-949.68" font-family="Helvetica,sans-Serif" font-size="12.00">point_2_longitude </text>
<text text-anchor="start" x="116" y="-949.68" font-family="Helvetica,sans-Serif" font-weight="bold" font-size="12.00">float</text>
<text text-anchor="start" x="7" y="-932.68" font-family="Helvetica,sans-Serif" font-size="12.00">point_2_street </text>
<text text-anchor="start" x="95" y="-932.68" font-family="Helvetica,sans-Serif" font-weight="bold" font-size="12.00">varchar</text>
<text text-anchor="start" x="7" y="-915.68" font-family="Helvetica,sans-Serif" font-size="12.00">ndt_in_kmh </text>
<text text-anchor="start" x="80" y="-915.68" font-family="Helvetica,sans-Serif" font-weight="bold" font-size="12.00">float</text>
<text text-anchor="start" x="7" y="-898.68" font-family="Helvetica,sans-Serif" font-size="12.00">point_2_postal_code </text>
<text text-anchor="start" x="132" y="-898.68" font-family="Helvetica,sans-Serif" font-weight="bold" font-size="12.00">integer</text>
<text text-anchor="start" x="7" y="-881.68" font-family="Helvetica,sans-Serif" font-size="12.00">point_2_country </text>
<text text-anchor="start" x="107" y="-881.68" font-family="Helvetica,sans-Serif" font-weight="bold" font-size="12.00">varchar</text>
<text text-anchor="start" x="7" y="-864.68" font-family="Helvetica,sans-Serif" font-size="12.00">point_1_street_number </text>
<text text-anchor="start" x="149" y="-864.68" font-family="Helvetica,sans-Serif" font-weight="bold" font-size="12.00">varchar</text>
<text text-anchor="start" x="7" y="-847.68" font-family="Helvetica,sans-Serif" font-size="12.00">organisation </text>
<text text-anchor="start" x="85" y="-847.68" font-family="Helvetica,sans-Serif" font-weight="bold" font-size="12.00">varchar</text>
<text text-anchor="start" x="7" y="-830.68" font-family="Helvetica,sans-Serif" font-size="12.00">point_1_latitude </text>
<text text-anchor="start" x="106" y="-830.68" font-family="Helvetica,sans-Serif" font-weight="bold" font-size="12.00">float</text>
<text text-anchor="start" x="7" y="-813.68" font-family="Helvetica,sans-Serif" font-size="12.00">point_2_latitude </text>
<text text-anchor="start" x="106" y="-813.68" font-family="Helvetica,sans-Serif" font-weight="bold" font-size="12.00">float</text>
<text text-anchor="start" x="7" y="-796.68" font-family="Helvetica,sans-Serif" font-size="12.00">point_1_postal_code </text>
<text text-anchor="start" x="132" y="-796.68" font-family="Helvetica,sans-Serif" font-weight="bold" font-size="12.00">integer</text>
<text text-anchor="start" x="7" y="-779.68" font-family="Helvetica,sans-Serif" font-size="12.00">point_2_street_number </text>
<text text-anchor="start" x="149" y="-779.68" font-family="Helvetica,sans-Serif" font-weight="bold" font-size="12.00">varchar</text>
<text text-anchor="start" x="7" y="-762.68" font-family="Helvetica,sans-Serif" font-size="12.00">point_2_city </text>
<text text-anchor="start" x="82" y="-762.68" font-family="Helvetica,sans-Serif" font-weight="bold" font-size="12.00">varchar</text>
<text text-anchor="start" x="7" y="-745.68" font-family="Helvetica,sans-Serif" font-size="12.00">extid </text>
<text text-anchor="start" x="41" y="-745.68" font-family="Helvetica,sans-Serif" font-weight="bold" font-size="12.00">integer</text>
<text text-anchor="start" x="7" y="-728.68" font-family="Helvetica,sans-Serif" font-size="12.00">road_type </text>
<text text-anchor="start" x="71" y="-728.68" font-family="Helvetica,sans-Serif" font-weight="bold" font-size="12.00">varchar</text>
<text text-anchor="start" x="7" y="-711.68" font-family="Helvetica,sans-Serif" font-size="12.00">point_1_longitude </text>
<text text-anchor="start" x="116" y="-711.68" font-family="Helvetica,sans-Serif" font-weight="bold" font-size="12.00">float</text>
<text text-anchor="start" x="7" y="-694.68" font-family="Helvetica,sans-Serif" font-size="12.00">report_id </text>
<text text-anchor="start" x="65" y="-694.68" font-family="Helvetica,sans-Serif" font-weight="bold" font-size="12.00">integer</text>
<text text-anchor="start" x="7" y="-677.68" font-family="Helvetica,sans-Serif" font-size="12.00">report_name </text>
<text text-anchor="start" x="89" y="-677.68" font-family="Helvetica,sans-Serif" font-weight="bold" font-size="12.00">varchar</text>
<text text-anchor="start" x="7" y="-660.68" font-family="Helvetica,sans-Serif" font-size="12.00">point_1_country </text>
<text text-anchor="start" x="107" y="-660.68" font-family="Helvetica,sans-Serif" font-weight="bold" font-size="12.00">varchar</text>
<text text-anchor="start" x="7" y="-643.68" font-family="Helvetica,sans-Serif" font-size="12.00">distance_in_meters </text>
<text text-anchor="start" x="127" y="-643.68" font-family="Helvetica,sans-Serif" font-weight="bold" font-size="12.00">float</text>
<text text-anchor="start" x="7" y="-626.68" font-family="Helvetica,sans-Serif" font-size="12.00">rba_id </text>
<text text-anchor="start" x="48" y="-626.68" font-family="Helvetica,sans-Serif" font-weight="bold" font-size="12.00">varchar</text>
<text text-anchor="start" x="7" y="-609.68" font-family="Helvetica,sans-Serif" font-size="12.00">source_id </text>
<text text-anchor="start" x="68" y="-609.68" font-family="Helvetica,sans-Serif" font-weight="bold" font-size="12.00">varchar</text>
</g>
<!-- parking_lots -->
<g id="node2" class="node">
<title>parking_lots</title>
<path fill="none" stroke="black" d="M1375.33,-440.24C1375.33,-440.24 1511.33,-440.24 1511.33,-440.24 1517.33,-440.24 1523.33,-446.24 1523.33,-452.24 1523.33,-452.24 1523.33,-583.24 1523.33,-583.24 1523.33,-589.24 1517.33,-595.24 1511.33,-595.24 1511.33,-595.24 1375.33,-595.24 1375.33,-595.24 1369.33,-595.24 1363.33,-589.24 1363.33,-583.24 1363.33,-583.24 1363.33,-452.24 1363.33,-452.24 1363.33,-446.24 1369.33,-440.24 1375.33,-440.24"/>
<text text-anchor="start" x="1398.33" y="-574.84" font-family="Helvetica,sans-Serif" font-weight="bold" font-size="13.00">parking_lots</text>
<polyline fill="none" stroke="black" points="1363.33,-565.24 1523.33,-565.24 "/>
<text text-anchor="start" x="1370.33" y="-551.14" font-family="Helvetica,sans-Serif" font-size="12.00">garage_code* </text>
<text text-anchor="start" x="1458.33" y="-551.14" font-family="Helvetica,sans-Serif" font-weight="bold" font-size="12.00">varchar</text>
<text text-anchor="start" x="1370.33" y="-534.14" font-family="Helvetica,sans-Serif" font-size="12.00">city </text>
<text text-anchor="start" x="1395.33" y="-534.14" font-family="Helvetica,sans-Serif" font-weight="bold" font-size="12.00">varchar</text>
<text text-anchor="start" x="1370.33" y="-517.14" font-family="Helvetica,sans-Serif" font-size="12.00">postal_code </text>
<text text-anchor="start" x="1446.33" y="-517.14" font-family="Helvetica,sans-Serif" font-weight="bold" font-size="12.00">integer</text>
<text text-anchor="start" x="1370.33" y="-500.14" font-family="Helvetica,sans-Serif" font-size="12.00">street </text>
<text text-anchor="start" x="1409.33" y="-500.14" font-family="Helvetica,sans-Serif" font-weight="bold" font-size="12.00">varchar</text>
<text text-anchor="start" x="1370.33" y="-483.14" font-family="Helvetica,sans-Serif" font-size="12.00">house_number </text>
<text text-anchor="start" x="1464.33" y="-483.14" font-family="Helvetica,sans-Serif" font-weight="bold" font-size="12.00">varchar</text>
<text text-anchor="start" x="1370.33" y="-466.14" font-family="Helvetica,sans-Serif" font-size="12.00">latitude </text>
<text text-anchor="start" x="1419.33" y="-466.14" font-family="Helvetica,sans-Serif" font-weight="bold" font-size="12.00">float</text>
<text text-anchor="start" x="1370.33" y="-449.14" font-family="Helvetica,sans-Serif" font-size="12.00">longitude </text>
<text text-anchor="start" x="1430.33" y="-449.14" font-family="Helvetica,sans-Serif" font-weight="bold" font-size="12.00">float</text>
</g>
<!-- data_types -->
<g id="node3" class="node">
<title>data_types</title>
<path fill="none" stroke="black" d="M413.38,-21.5C413.38,-21.5 533.38,-21.5 533.38,-21.5 539.38,-21.5 545.38,-27.5 545.38,-33.5 545.38,-33.5 545.38,-79.5 545.38,-79.5 545.38,-85.5 539.38,-91.5 533.38,-91.5 533.38,-91.5 413.38,-91.5 413.38,-91.5 407.38,-91.5 401.38,-85.5 401.38,-79.5 401.38,-79.5 401.38,-33.5 401.38,-33.5 401.38,-27.5 407.38,-21.5 413.38,-21.5"/>
<text text-anchor="start" x="433.38" y="-71.1" font-family="Helvetica,sans-Serif" font-weight="bold" font-size="13.00">data_types</text>
<polyline fill="none" stroke="black" points="401.38,-61.5 545.38,-61.5 "/>
<text text-anchor="start" x="408.38" y="-47.9" font-family="Helvetica,sans-Serif" font-size="12.00">id* </text>
<text text-anchor="start" x="429.38" y="-47.9" font-family="Helvetica,sans-Serif" font-weight="bold" font-size="12.00">integer</text>
<text text-anchor="start" x="408.38" y="-30.9" font-family="Helvetica,sans-Serif" font-size="12.00">name </text>
<text text-anchor="start" x="447.38" y="-30.9" font-family="Helvetica,sans-Serif" font-weight="bold" font-size="12.00">varchar</text>
</g>
<!-- locations -->
<g id="node4" class="node">
<title>locations</title>
<path fill="none" stroke="black" d="M680.5,-39.46C680.5,-39.46 800.5,-39.46 800.5,-39.46 806.5,-39.46 812.5,-45.46 812.5,-51.46 812.5,-51.46 812.5,-97.46 812.5,-97.46 812.5,-103.46 806.5,-109.46 800.5,-109.46 800.5,-109.46 680.5,-109.46 680.5,-109.46 674.5,-109.46 668.5,-103.46 668.5,-97.46 668.5,-97.46 668.5,-51.46 668.5,-51.46 668.5,-45.46 674.5,-39.46 680.5,-39.46"/>
<text text-anchor="start" x="707.5" y="-89.06" font-family="Helvetica,sans-Serif" font-weight="bold" font-size="13.00">locations</text>
<polyline fill="none" stroke="black" points="668.5,-79.46 812.5,-79.46 "/>
<text text-anchor="start" x="675.5" y="-65.86" font-family="Helvetica,sans-Serif" font-size="12.00">id* </text>
<text text-anchor="start" x="696.5" y="-65.86" font-family="Helvetica,sans-Serif" font-weight="bold" font-size="12.00">integer</text>
<text text-anchor="start" x="675.5" y="-48.86" font-family="Helvetica,sans-Serif" font-size="12.00">name </text>
<text text-anchor="start" x="714.5" y="-48.86" font-family="Helvetica,sans-Serif" font-weight="bold" font-size="12.00">varchar</text>
</g>
<!-- datasets -->
<g id="node5" class="node">
<title>datasets</title>
<path fill="none" stroke="black" d="M944.64,-787.78C944.64,-787.78 1064.64,-787.78 1064.64,-787.78 1070.64,-787.78 1076.64,-793.78 1076.64,-799.78 1076.64,-799.78 1076.64,-896.78 1076.64,-896.78 1076.64,-902.78 1070.64,-908.78 1064.64,-908.78 1064.64,-908.78 944.64,-908.78 944.64,-908.78 938.64,-908.78 932.64,-902.78 932.64,-896.78 932.64,-896.78 932.64,-799.78 932.64,-799.78 932.64,-793.78 938.64,-787.78 944.64,-787.78"/>
<text text-anchor="start" x="972.64" y="-888.38" font-family="Helvetica,sans-Serif" font-weight="bold" font-size="13.00">datasets</text>
<polyline fill="none" stroke="black" points="932.64,-878.78 1076.64,-878.78 "/>
<text text-anchor="start" x="939.64" y="-864.68" font-family="Helvetica,sans-Serif" font-size="12.00">id* </text>
<text text-anchor="start" x="960.64" y="-864.68" font-family="Helvetica,sans-Serif" font-weight="bold" font-size="12.00">integer</text>
<text text-anchor="start" x="939.64" y="-847.68" font-family="Helvetica,sans-Serif" font-size="12.00">name </text>
<text text-anchor="start" x="978.64" y="-847.68" font-family="Helvetica,sans-Serif" font-weight="bold" font-size="12.00">varchar</text>
<text text-anchor="start" x="939.64" y="-830.68" font-family="Helvetica,sans-Serif" font-size="12.00">url </text>
<text text-anchor="start" x="959.64" y="-830.68" font-family="Helvetica,sans-Serif" font-weight="bold" font-size="12.00">varchar</text>
<text text-anchor="start" x="939.64" y="-813.68" font-family="Helvetica,sans-Serif" font-size="12.00">data_type_id </text>
<text text-anchor="start" x="1019.64" y="-813.68" font-family="Helvetica,sans-Serif" font-weight="bold" font-size="12.00">integer</text>
<text text-anchor="start" x="939.64" y="-796.68" font-family="Helvetica,sans-Serif" font-size="12.00">location_id </text>
<text text-anchor="start" x="1007.64" y="-796.68" font-family="Helvetica,sans-Serif" font-weight="bold" font-size="12.00">integer</text>
</g>
<!-- datasets&#45;&gt;data_types -->
<g id="edge2" class="edge">
<title>datasets&#45;&gt;data_types</title>
<path fill="none" stroke="black" stroke-width="0.9" d="M965.45,-787.55C871.28,-641.62 640.02,-283.26 640.02,-283.26 640.02,-283.26 552.41,-164.04 504.24,-98.49"/>
<polygon fill="black" stroke="black" stroke-width="0.9" points="506.42,-96.72 499.42,-91.93 501.9,-100.04 506.42,-96.72"/>
</g>
<!-- datasets&#45;&gt;locations -->
<g id="edge1" class="edge">
<title>datasets&#45;&gt;locations</title>
<path fill="none" stroke="black" stroke-width="0.9" d="M983.92,-787.56C932.4,-636.63 799.49,-247.27 755.15,-117.36"/>
<polygon fill="black" stroke="black" stroke-width="0.9" points="757.71,-116.22 752.48,-109.55 752.41,-118.03 757.71,-116.22"/>
</g>
<!-- road_traffic_data -->
<g id="node6" class="node">
<title>road_traffic_data</title>
<path fill="none" stroke="black" d="M469.32,-1195.61C469.32,-1195.61 639.32,-1195.61 639.32,-1195.61 645.32,-1195.61 651.32,-1201.61 651.32,-1207.61 651.32,-1207.61 651.32,-1389.61 651.32,-1389.61 651.32,-1395.61 645.32,-1401.61 639.32,-1401.61 639.32,-1401.61 469.32,-1401.61 469.32,-1401.61 463.32,-1401.61 457.32,-1395.61 457.32,-1389.61 457.32,-1389.61 457.32,-1207.61 457.32,-1207.61 457.32,-1201.61 463.32,-1195.61 469.32,-1195.61"/>
<text text-anchor="start" x="492.32" y="-1381.21" font-family="Helvetica,sans-Serif" font-weight="bold" font-size="13.00">road_traffic_data</text>
<polyline fill="none" stroke="black" points="457.32,-1371.61 651.32,-1371.61 "/>
<text text-anchor="start" x="464.32" y="-1358.01" font-family="Helvetica,sans-Serif" font-size="12.00">id* </text>
<text text-anchor="start" x="485.32" y="-1358.01" font-family="Helvetica,sans-Serif" font-weight="bold" font-size="12.00">integer</text>
<text text-anchor="start" x="464.32" y="-1341.01" font-family="Helvetica,sans-Serif" font-size="12.00">status </text>
<text text-anchor="start" x="504.32" y="-1341.01" font-family="Helvetica,sans-Serif" font-weight="bold" font-size="12.00">varchar</text>
<text text-anchor="start" x="464.32" y="-1324.01" font-family="Helvetica,sans-Serif" font-size="12.00">avg_measured_time </text>
<text text-anchor="start" x="589.32" y="-1324.01" font-family="Helvetica,sans-Serif" font-weight="bold" font-size="12.00">float</text>
<text text-anchor="start" x="464.32" y="-1307.01" font-family="Helvetica,sans-Serif" font-size="12.00">avg_speed </text>
<text text-anchor="start" x="532.32" y="-1307.01" font-family="Helvetica,sans-Serif" font-weight="bold" font-size="12.00">float</text>
<text text-anchor="start" x="464.32" y="-1290.01" font-family="Helvetica,sans-Serif" font-size="12.00">ext_id </text>
<text text-anchor="start" x="504.32" y="-1290.01" font-family="Helvetica,sans-Serif" font-weight="bold" font-size="12.00">integer</text>
<text text-anchor="start" x="464.32" y="-1273.01" font-family="Helvetica,sans-Serif" font-size="12.00">median_measured_time </text>
<text text-anchor="start" x="612.32" y="-1273.01" font-family="Helvetica,sans-Serif" font-weight="bold" font-size="12.00">float</text>
<text text-anchor="start" x="464.32" y="-1256.01" font-family="Helvetica,sans-Serif" font-size="12.00">timestamp </text>
<text text-anchor="start" x="533.32" y="-1256.01" font-family="Helvetica,sans-Serif" font-weight="bold" font-size="12.00">datetime</text>
<text text-anchor="start" x="464.32" y="-1239.01" font-family="Helvetica,sans-Serif" font-size="12.00">vehicle_count </text>
<text text-anchor="start" x="550.32" y="-1239.01" font-family="Helvetica,sans-Serif" font-weight="bold" font-size="12.00">float</text>
<text text-anchor="start" x="464.32" y="-1222.01" font-family="Helvetica,sans-Serif" font-size="12.00">report_id </text>
<text text-anchor="start" x="522.32" y="-1222.01" font-family="Helvetica,sans-Serif" font-weight="bold" font-size="12.00">integer</text>
<text text-anchor="start" x="464.32" y="-1205.01" font-family="Helvetica,sans-Serif" font-size="12.00">dataset_id </text>
<text text-anchor="start" x="530.32" y="-1205.01" font-family="Helvetica,sans-Serif" font-weight="bold" font-size="12.00">integer</text>
</g>
<!-- road_traffic_data&#45;&gt;traffic_sensors -->
<g id="edge4" class="edge">
<title>road_traffic_data&#45;&gt;traffic_sensors</title>
<path fill="none" stroke="black" stroke-width="0.9" d="M457.16,-1201.45C385.6,-1129.88 288.2,-1032.48 213.81,-958.09"/>
<polygon fill="black" stroke="black" stroke-width="0.9" points="215.68,-956 208.04,-952.33 211.72,-959.96 215.68,-956"/>
</g>
<!-- road_traffic_data&#45;&gt;datasets -->
<g id="edge3" class="edge">
<title>road_traffic_data&#45;&gt;datasets</title>
<path fill="none" stroke="black" stroke-width="0.9" d="M651.48,-1201.45C738.04,-1114.89 862.4,-990.53 938.11,-914.82"/>
<polygon fill="black" stroke="black" stroke-width="0.9" points="940.25,-916.64 943.93,-909 936.29,-912.68 940.25,-916.64"/>
</g>
<!-- pollution_data -->
<g id="node7" class="node">
<title>pollution_data</title>
<path fill="none" stroke="black" d="M483.82,-286.46C483.82,-286.46 624.82,-286.46 624.82,-286.46 630.82,-286.46 636.82,-292.46 636.82,-298.46 636.82,-298.46 636.82,-497.46 636.82,-497.46 636.82,-503.46 630.82,-509.46 624.82,-509.46 624.82,-509.46 483.82,-509.46 483.82,-509.46 477.82,-509.46 471.82,-503.46 471.82,-497.46 471.82,-497.46 471.82,-298.46 471.82,-298.46 471.82,-292.46 477.82,-286.46 483.82,-286.46"/>
<text text-anchor="start" x="502.32" y="-489.06" font-family="Helvetica,sans-Serif" font-weight="bold" font-size="13.00">pollution_data</text>
<polyline fill="none" stroke="black" points="471.82,-479.46 636.82,-479.46 "/>
<text text-anchor="start" x="479.32" y="-465.36" font-family="Helvetica,sans-Serif" font-size="12.00">id* </text>
<text text-anchor="start" x="500.32" y="-465.36" font-family="Helvetica,sans-Serif" font-weight="bold" font-size="12.00">integer</text>
<text text-anchor="start" x="479.32" y="-448.36" font-family="Helvetica,sans-Serif" font-size="12.00">ozone </text>
<text text-anchor="start" x="519.32" y="-448.36" font-family="Helvetica,sans-Serif" font-weight="bold" font-size="12.00">float</text>
<text text-anchor="start" x="479.32" y="-431.36" font-family="Helvetica,sans-Serif" font-size="12.00">particullate_matter </text>
<text text-anchor="start" x="598.32" y="-431.36" font-family="Helvetica,sans-Serif" font-weight="bold" font-size="12.00">float</text>
<text text-anchor="start" x="479.32" y="-414.36" font-family="Helvetica,sans-Serif" font-size="12.00">carbon_monoxide </text>
<text text-anchor="start" x="590.32" y="-414.36" font-family="Helvetica,sans-Serif" font-weight="bold" font-size="12.00">float</text>
<text text-anchor="start" x="479.32" y="-397.36" font-family="Helvetica,sans-Serif" font-size="12.00">sulfure_dioxide </text>
<text text-anchor="start" x="572.32" y="-397.36" font-family="Helvetica,sans-Serif" font-weight="bold" font-size="12.00">float</text>
<text text-anchor="start" x="479.32" y="-380.36" font-family="Helvetica,sans-Serif" font-size="12.00">nitrogen_dioxide </text>
<text text-anchor="start" x="581.32" y="-380.36" font-family="Helvetica,sans-Serif" font-weight="bold" font-size="12.00">float</text>
<text text-anchor="start" x="479.32" y="-363.36" font-family="Helvetica,sans-Serif" font-size="12.00">longitude </text>
<text text-anchor="start" x="539.32" y="-363.36" font-family="Helvetica,sans-Serif" font-weight="bold" font-size="12.00">float</text>
<text text-anchor="start" x="479.32" y="-346.36" font-family="Helvetica,sans-Serif" font-size="12.00">latitude </text>
<text text-anchor="start" x="528.32" y="-346.36" font-family="Helvetica,sans-Serif" font-weight="bold" font-size="12.00">float</text>
<text text-anchor="start" x="479.32" y="-329.36" font-family="Helvetica,sans-Serif" font-size="12.00">timestamp </text>
<text text-anchor="start" x="548.32" y="-329.36" font-family="Helvetica,sans-Serif" font-weight="bold" font-size="12.00">datetime</text>
<text text-anchor="start" x="479.32" y="-312.36" font-family="Helvetica,sans-Serif" font-size="12.00">report_id </text>
<text text-anchor="start" x="537.32" y="-312.36" font-family="Helvetica,sans-Serif" font-weight="bold" font-size="12.00">integer</text>
<text text-anchor="start" x="479.32" y="-295.36" font-family="Helvetica,sans-Serif" font-size="12.00">dataset_id </text>
<text text-anchor="start" x="545.32" y="-295.36" font-family="Helvetica,sans-Serif" font-weight="bold" font-size="12.00">integer</text>
</g>
<!-- pollution_data&#45;&gt;traffic_sensors -->
<g id="edge6" class="edge">
<title>pollution_data&#45;&gt;traffic_sensors</title>
<path fill="none" stroke="black" stroke-width="0.9" d="M471.73,-480.56C399.32,-552.96 293.5,-658.78 213.95,-738.33"/>
<polygon fill="black" stroke="black" stroke-width="0.9" points="211.94,-736.38 208.27,-744.02 215.9,-740.34 211.94,-736.38"/>
</g>
<!-- pollution_data&#45;&gt;datasets -->
<g id="edge5" class="edge">
<title>pollution_data&#45;&gt;datasets</title>
<path fill="none" stroke="black" stroke-width="0.9" d="M636.92,-480.56C723.58,-567.22 858.11,-701.75 938.18,-781.82"/>
<polygon fill="black" stroke="black" stroke-width="0.9" points="936.21,-783.81 943.85,-787.49 940.17,-779.85 936.21,-783.81"/>
</g>
<!-- weather_data -->
<g id="node8" class="node">
<title>weather_data</title>
<path fill="none" stroke="black" d="M958.45,-99.07C958.45,-99.07 1079.45,-99.07 1079.45,-99.07 1085.45,-99.07 1091.45,-105.07 1091.45,-111.07 1091.45,-111.07 1091.45,-293.07 1091.45,-293.07 1091.45,-299.07 1085.45,-305.07 1079.45,-305.07 1079.45,-305.07 958.45,-305.07 958.45,-305.07 952.45,-305.07 946.45,-299.07 946.45,-293.07 946.45,-293.07 946.45,-111.07 946.45,-111.07 946.45,-105.07 952.45,-99.07 958.45,-99.07"/>
<text text-anchor="start" x="968.95" y="-284.67" font-family="Helvetica,sans-Serif" font-weight="bold" font-size="13.00">weather_data</text>
<polyline fill="none" stroke="black" points="946.45,-275.07 1091.45,-275.07 "/>
<text text-anchor="start" x="953.95" y="-261.47" font-family="Helvetica,sans-Serif" font-size="12.00">id* </text>
<text text-anchor="start" x="974.95" y="-261.47" font-family="Helvetica,sans-Serif" font-weight="bold" font-size="12.00">integer</text>
<text text-anchor="start" x="953.95" y="-244.47" font-family="Helvetica,sans-Serif" font-size="12.00">timestamp </text>
<text text-anchor="start" x="1022.95" y="-244.47" font-family="Helvetica,sans-Serif" font-weight="bold" font-size="12.00">datetime</text>
<text text-anchor="start" x="953.95" y="-227.47" font-family="Helvetica,sans-Serif" font-size="12.00">dew_point </text>
<text text-anchor="start" x="1018.95" y="-227.47" font-family="Helvetica,sans-Serif" font-weight="bold" font-size="12.00">float</text>
<text text-anchor="start" x="953.95" y="-210.47" font-family="Helvetica,sans-Serif" font-size="12.00">pressure </text>
<text text-anchor="start" x="1008.95" y="-210.47" font-family="Helvetica,sans-Serif" font-weight="bold" font-size="12.00">float</text>
<text text-anchor="start" x="953.95" y="-193.47" font-family="Helvetica,sans-Serif" font-size="12.00">wind_direction </text>
<text text-anchor="start" x="1043.95" y="-193.47" font-family="Helvetica,sans-Serif" font-weight="bold" font-size="12.00">float</text>
<text text-anchor="start" x="953.95" y="-176.47" font-family="Helvetica,sans-Serif" font-size="12.00">temperature </text>
<text text-anchor="start" x="1033.95" y="-176.47" font-family="Helvetica,sans-Serif" font-weight="bold" font-size="12.00">float</text>
<text text-anchor="start" x="953.95" y="-159.47" font-family="Helvetica,sans-Serif" font-size="12.00">visibility </text>
<text text-anchor="start" x="1004.95" y="-159.47" font-family="Helvetica,sans-Serif" font-weight="bold" font-size="12.00">float</text>
<text text-anchor="start" x="953.95" y="-142.47" font-family="Helvetica,sans-Serif" font-size="12.00">wind_speed </text>
<text text-anchor="start" x="1027.95" y="-142.47" font-family="Helvetica,sans-Serif" font-weight="bold" font-size="12.00">float</text>
<text text-anchor="start" x="953.95" y="-125.47" font-family="Helvetica,sans-Serif" font-size="12.00">humidity </text>
<text text-anchor="start" x="1009.95" y="-125.47" font-family="Helvetica,sans-Serif" font-weight="bold" font-size="12.00">float</text>
<text text-anchor="start" x="953.95" y="-108.47" font-family="Helvetica,sans-Serif" font-size="12.00">dataset_id </text>
<text text-anchor="start" x="1019.95" y="-108.47" font-family="Helvetica,sans-Serif" font-weight="bold" font-size="12.00">integer</text>
</g>
<!-- weather_data&#45;&gt;datasets -->
<g id="edge7" class="edge">
<title>weather_data&#45;&gt;datasets</title>
<path fill="none" stroke="black" stroke-width="0.9" d="M1016.67,-305.18C1013.73,-437.98 1008.7,-665.19 1006.18,-779.02"/>
<polygon fill="black" stroke="black" stroke-width="0.9" points="1003.37,-779.29 1005.99,-787.35 1008.97,-779.42 1003.37,-779.29"/>
</g>
<!-- parking_data -->
<g id="node9" class="node">
<title>parking_data</title>
<path fill="none" stroke="black" d="M1099.43,-535.25C1099.43,-535.25 1230.43,-535.25 1230.43,-535.25 1236.43,-535.25 1242.43,-541.25 1242.43,-547.25 1242.43,-547.25 1242.43,-695.25 1242.43,-695.25 1242.43,-701.25 1236.43,-707.25 1230.43,-707.25 1230.43,-707.25 1099.43,-707.25 1099.43,-707.25 1093.43,-707.25 1087.43,-701.25 1087.43,-695.25 1087.43,-695.25 1087.43,-547.25 1087.43,-547.25 1087.43,-541.25 1093.43,-535.25 1099.43,-535.25"/>
<text text-anchor="start" x="1116.93" y="-686.85" font-family="Helvetica,sans-Serif" font-weight="bold" font-size="13.00">parking_data</text>
<polyline fill="none" stroke="black" points="1087.43,-677.25 1242.43,-677.25 "/>
<text text-anchor="start" x="1094.93" y="-663.65" font-family="Helvetica,sans-Serif" font-size="12.00">id* </text>
<text text-anchor="start" x="1115.93" y="-663.65" font-family="Helvetica,sans-Serif" font-weight="bold" font-size="12.00">integer</text>
<text text-anchor="start" x="1094.93" y="-646.65" font-family="Helvetica,sans-Serif" font-size="12.00">vehicle_count </text>
<text text-anchor="start" x="1180.93" y="-646.65" font-family="Helvetica,sans-Serif" font-weight="bold" font-size="12.00">integer</text>
<text text-anchor="start" x="1094.93" y="-629.65" font-family="Helvetica,sans-Serif" font-size="12.00">timestamp </text>
<text text-anchor="start" x="1163.93" y="-629.65" font-family="Helvetica,sans-Serif" font-weight="bold" font-size="12.00">datetime</text>
<text text-anchor="start" x="1094.93" y="-612.65" font-family="Helvetica,sans-Serif" font-size="12.00">_id </text>
<text text-anchor="start" x="1115.93" y="-612.65" font-family="Helvetica,sans-Serif" font-weight="bold" font-size="12.00">integer</text>
<text text-anchor="start" x="1094.93" y="-595.65" font-family="Helvetica,sans-Serif" font-size="12.00">total_spaces </text>
<text text-anchor="start" x="1173.93" y="-595.65" font-family="Helvetica,sans-Serif" font-weight="bold" font-size="12.00">integer</text>
<text text-anchor="start" x="1094.93" y="-578.65" font-family="Helvetica,sans-Serif" font-size="12.00">garage_code </text>
<text text-anchor="start" x="1176.93" y="-578.65" font-family="Helvetica,sans-Serif" font-weight="bold" font-size="12.00">varchar</text>
<text text-anchor="start" x="1094.93" y="-561.65" font-family="Helvetica,sans-Serif" font-size="12.00">stream_time </text>
<text text-anchor="start" x="1173.93" y="-561.65" font-family="Helvetica,sans-Serif" font-weight="bold" font-size="12.00">datetime</text>
<text text-anchor="start" x="1094.93" y="-544.65" font-family="Helvetica,sans-Serif" font-size="12.00">dataset_id </text>
<text text-anchor="start" x="1160.93" y="-544.65" font-family="Helvetica,sans-Serif" font-weight="bold" font-size="12.00">integer</text>
</g>
<!-- parking_data&#45;&gt;parking_lots -->
<g id="edge9" class="edge">
<title>parking_data&#45;&gt;parking_lots</title>
<path fill="none" stroke="black" stroke-width="0.9" d="M1242.48,-592.42C1277.63,-579.35 1319.35,-563.84 1355.63,-550.35"/>
<polygon fill="black" stroke="black" stroke-width="0.9" points="1356.77,-552.92 1363.29,-547.5 1354.81,-547.67 1356.77,-552.92"/>
</g>
<!-- parking_data&#45;&gt;datasets -->
<g id="edge8" class="edge">
<title>parking_data&#45;&gt;datasets</title>
<path fill="none" stroke="black" stroke-width="0.9" d="M1104.1,-707.41C1086.94,-731.73 1068.51,-757.83 1052.24,-780.87"/>
<polygon fill="black" stroke="black" stroke-width="0.9" points="1049.81,-779.45 1047.49,-787.6 1054.39,-782.68 1049.81,-779.45"/>
</g>
<!-- social_event_data -->
<g id="node10" class="node">
<title>social_event_data</title>
<path fill="none" stroke="black" d="M1275.86,-927.24C1275.86,-927.24 1396.86,-927.24 1396.86,-927.24 1402.86,-927.24 1408.86,-933.24 1408.86,-939.24 1408.86,-939.24 1408.86,-1053.24 1408.86,-1053.24 1408.86,-1059.24 1402.86,-1065.24 1396.86,-1065.24 1396.86,-1065.24 1275.86,-1065.24 1275.86,-1065.24 1269.86,-1065.24 1263.86,-1059.24 1263.86,-1053.24 1263.86,-1053.24 1263.86,-939.24 1263.86,-939.24 1263.86,-933.24 1269.86,-927.24 1275.86,-927.24"/>
<text text-anchor="start" x="1271.36" y="-1044.84" font-family="Helvetica,sans-Serif" font-weight="bold" font-size="13.00">social_event_data</text>
<polyline fill="none" stroke="black" points="1263.86,-1035.24 1408.86,-1035.24 "/>
<text text-anchor="start" x="1271.36" y="-1021.64" font-family="Helvetica,sans-Serif" font-size="12.00">id* </text>
<text text-anchor="start" x="1292.36" y="-1021.64" font-family="Helvetica,sans-Serif" font-weight="bold" font-size="12.00">integer</text>
<text text-anchor="start" x="1271.36" y="-1004.64" font-family="Helvetica,sans-Serif" font-size="12.00">name </text>
<text text-anchor="start" x="1310.36" y="-1004.64" font-family="Helvetica,sans-Serif" font-weight="bold" font-size="12.00">varchar</text>
<text text-anchor="start" x="1271.36" y="-987.64" font-family="Helvetica,sans-Serif" font-size="12.00">url </text>
<text text-anchor="start" x="1291.36" y="-987.64" font-family="Helvetica,sans-Serif" font-weight="bold" font-size="12.00">varchar</text>
<text text-anchor="start" x="1271.36" y="-970.64" font-family="Helvetica,sans-Serif" font-size="12.00">description </text>
<text text-anchor="start" x="1341.36" y="-970.64" font-family="Helvetica,sans-Serif" font-weight="bold" font-size="12.00">varchar</text>
<text text-anchor="start" x="1271.36" y="-953.64" font-family="Helvetica,sans-Serif" font-size="12.00">timestamp </text>
<text text-anchor="start" x="1340.36" y="-953.64" font-family="Helvetica,sans-Serif" font-weight="bold" font-size="12.00">datetime</text>
<text text-anchor="start" x="1271.36" y="-936.64" font-family="Helvetica,sans-Serif" font-size="12.00">dataset_id </text>
<text text-anchor="start" x="1337.36" y="-936.64" font-family="Helvetica,sans-Serif" font-weight="bold" font-size="12.00">integer</text>
</g>
<!-- social_event_data&#45;&gt;datasets -->
<g id="edge10" class="edge">
<title>social_event_data&#45;&gt;datasets</title>
<path fill="none" stroke="black" stroke-width="0.9" d="M1263.56,-963.77C1210.56,-940.13 1138.81,-908.12 1084.28,-883.8"/>
<polygon fill="black" stroke="black" stroke-width="0.9" points="1085.15,-881.12 1076.7,-880.42 1082.87,-886.24 1085.15,-881.12"/>
</g>
<!-- cultural_event_data -->
<g id="node11" class="node">
<title>cultural_event_data</title>
<path fill="none" stroke="black" d="M1077,-1177.39C1077,-1177.39 1227,-1177.39 1227,-1177.39 1233,-1177.39 1239,-1183.39 1239,-1189.39 1239,-1189.39 1239,-1558.39 1239,-1558.39 1239,-1564.39 1233,-1570.39 1227,-1570.39 1227,-1570.39 1077,-1570.39 1077,-1570.39 1071,-1570.39 1065,-1564.39 1065,-1558.39 1065,-1558.39 1065,-1189.39 1065,-1189.39 1065,-1183.39 1071,-1177.39 1077,-1177.39"/>
<text text-anchor="start" x="1080" y="-1549.99" font-family="Helvetica,sans-Serif" font-weight="bold" font-size="13.00">cultural_event_data</text>
<polyline fill="none" stroke="black" points="1065,-1540.39 1239,-1540.39 "/>
<text text-anchor="start" x="1072" y="-1526.29" font-family="Helvetica,sans-Serif" font-size="12.00">id* </text>
<text text-anchor="start" x="1093" y="-1526.29" font-family="Helvetica,sans-Serif" font-weight="bold" font-size="12.00">integer</text>
<text text-anchor="start" x="1072" y="-1509.29" font-family="Helvetica,sans-Serif" font-size="12.00">category_number </text>
<text text-anchor="start" x="1183" y="-1509.29" font-family="Helvetica,sans-Serif" font-weight="bold" font-size="12.00">integer</text>
<text text-anchor="start" x="1072" y="-1492.29" font-family="Helvetica,sans-Serif" font-size="12.00">city </text>
<text text-anchor="start" x="1097" y="-1492.29" font-family="Helvetica,sans-Serif" font-weight="bold" font-size="12.00">varchar</text>
<text text-anchor="start" x="1072" y="-1475.29" font-family="Helvetica,sans-Serif" font-size="12.00">name </text>
<text text-anchor="start" x="1111" y="-1475.29" font-family="Helvetica,sans-Serif" font-weight="bold" font-size="12.00">varchar</text>
<text text-anchor="start" x="1072" y="-1458.29" font-family="Helvetica,sans-Serif" font-size="12.00">url </text>
<text text-anchor="start" x="1092" y="-1458.29" font-family="Helvetica,sans-Serif" font-weight="bold" font-size="12.00">varchar</text>
<text text-anchor="start" x="1072" y="-1441.29" font-family="Helvetica,sans-Serif" font-size="12.00">price </text>
<text text-anchor="start" x="1106" y="-1441.29" font-family="Helvetica,sans-Serif" font-weight="bold" font-size="12.00">varchar</text>
<text text-anchor="start" x="1072" y="-1424.29" font-family="Helvetica,sans-Serif" font-size="12.00">created_time </text>
<text text-anchor="start" x="1155" y="-1424.29" font-family="Helvetica,sans-Serif" font-weight="bold" font-size="12.00">integer</text>
<text text-anchor="start" x="1072" y="-1407.29" font-family="Helvetica,sans-Serif" font-size="12.00">post_code </text>
<text text-anchor="start" x="1137" y="-1407.29" font-family="Helvetica,sans-Serif" font-weight="bold" font-size="12.00">integer</text>
<text text-anchor="start" x="1072" y="-1390.29" font-family="Helvetica,sans-Serif" font-size="12.00">longitude </text>
<text text-anchor="start" x="1132" y="-1390.29" font-family="Helvetica,sans-Serif" font-weight="bold" font-size="12.00">float</text>
<text text-anchor="start" x="1072" y="-1373.29" font-family="Helvetica,sans-Serif" font-size="12.00">event_id </text>
<text text-anchor="start" x="1127" y="-1373.29" font-family="Helvetica,sans-Serif" font-weight="bold" font-size="12.00">varchar</text>
<text text-anchor="start" x="1072" y="-1356.29" font-family="Helvetica,sans-Serif" font-size="12.00">xml </text>
<text text-anchor="start" x="1098" y="-1356.29" font-family="Helvetica,sans-Serif" font-weight="bold" font-size="12.00">varchar</text>
<text text-anchor="start" x="1072" y="-1339.29" font-family="Helvetica,sans-Serif" font-size="12.00">street </text>
<text text-anchor="start" x="1111" y="-1339.29" font-family="Helvetica,sans-Serif" font-weight="bold" font-size="12.00">varchar</text>
<text text-anchor="start" x="1072" y="-1322.29" font-family="Helvetica,sans-Serif" font-size="12.00">room </text>
<text text-anchor="start" x="1108" y="-1322.29" font-family="Helvetica,sans-Serif" font-weight="bold" font-size="12.00">varchar</text>
<text text-anchor="start" x="1072" y="-1305.29" font-family="Helvetica,sans-Serif" font-size="12.00">timestamp </text>
<text text-anchor="start" x="1141" y="-1305.29" font-family="Helvetica,sans-Serif" font-weight="bold" font-size="12.00">datetime</text>
<text text-anchor="start" x="1072" y="-1288.29" font-family="Helvetica,sans-Serif" font-size="12.00">latitude </text>
<text text-anchor="start" x="1121" y="-1288.29" font-family="Helvetica,sans-Serif" font-weight="bold" font-size="12.00">float</text>
<text text-anchor="start" x="1072" y="-1271.29" font-family="Helvetica,sans-Serif" font-size="12.00">calendar_url </text>
<text text-anchor="start" x="1151" y="-1271.29" font-family="Helvetica,sans-Serif" font-weight="bold" font-size="12.00">varchar</text>
<text text-anchor="start" x="1072" y="-1254.29" font-family="Helvetica,sans-Serif" font-size="12.00">_id </text>
<text text-anchor="start" x="1093" y="-1254.29" font-family="Helvetica,sans-Serif" font-weight="bold" font-size="12.00">integer</text>
<text text-anchor="start" x="1072" y="-1237.29" font-family="Helvetica,sans-Serif" font-size="12.00">event_type </text>
<text text-anchor="start" x="1142" y="-1237.29" font-family="Helvetica,sans-Serif" font-weight="bold" font-size="12.00">varchar</text>
<text text-anchor="start" x="1072" y="-1220.29" font-family="Helvetica,sans-Serif" font-size="12.00">image_url </text>
<text text-anchor="start" x="1136" y="-1220.29" font-family="Helvetica,sans-Serif" font-weight="bold" font-size="12.00">varchar</text>
<text text-anchor="start" x="1072" y="-1203.29" font-family="Helvetica,sans-Serif" font-size="12.00">genre </text>
<text text-anchor="start" x="1111" y="-1203.29" font-family="Helvetica,sans-Serif" font-weight="bold" font-size="12.00">varchar</text>
<text text-anchor="start" x="1072" y="-1186.29" font-family="Helvetica,sans-Serif" font-size="12.00">dataset_id </text>
<text text-anchor="start" x="1138" y="-1186.29" font-family="Helvetica,sans-Serif" font-weight="bold" font-size="12.00">integer</text>
</g>
<!-- cultural_event_data&#45;&gt;datasets -->
<g id="edge11" class="edge">
<title>cultural_event_data&#45;&gt;datasets</title>
<path fill="none" stroke="black" stroke-width="0.9" d="M1096.81,-1177.05C1071.18,-1085.61 1042.35,-982.79 1023.87,-916.86"/>
<polygon fill="black" stroke="black" stroke-width="0.9" points="1026.52,-915.96 1021.67,-909.01 1021.13,-917.47 1026.52,-915.96"/>
</g>
<!-- library_event_data -->
<g id="node12" class="node">
<title>library_event_data</title>
<path fill="none" stroke="black" d="M573.84,-1434.64C573.84,-1434.64 704.84,-1434.64 704.84,-1434.64 710.84,-1434.64 716.84,-1440.64 716.84,-1446.64 716.84,-1446.64 716.84,-1832.64 716.84,-1832.64 716.84,-1838.64 710.84,-1844.64 704.84,-1844.64 704.84,-1844.64 573.84,-1844.64 573.84,-1844.64 567.84,-1844.64 561.84,-1838.64 561.84,-1832.64 561.84,-1832.64 561.84,-1446.64 561.84,-1446.64 561.84,-1440.64 567.84,-1434.64 573.84,-1434.64"/>
<text text-anchor="start" x="571.34" y="-1824.24" font-family="Helvetica,sans-Serif" font-weight="bold" font-size="13.00">library_event_data</text>
<polyline fill="none" stroke="black" points="561.84,-1814.64 716.84,-1814.64 "/>
<text text-anchor="start" x="569.34" y="-1801.04" font-family="Helvetica,sans-Serif" font-size="12.00">id* </text>
<text text-anchor="start" x="590.34" y="-1801.04" font-family="Helvetica,sans-Serif" font-weight="bold" font-size="12.00">integer</text>
<text text-anchor="start" x="569.34" y="-1784.04" font-family="Helvetica,sans-Serif" font-size="12.00">lid </text>
<text text-anchor="start" x="587.34" y="-1784.04" font-family="Helvetica,sans-Serif" font-weight="bold" font-size="12.00">varchar</text>
<text text-anchor="start" x="569.34" y="-1767.04" font-family="Helvetica,sans-Serif" font-size="12.00">city </text>
<text text-anchor="start" x="594.34" y="-1767.04" font-family="Helvetica,sans-Serif" font-weight="bold" font-size="12.00">varchar</text>
<text text-anchor="start" x="569.34" y="-1750.04" font-family="Helvetica,sans-Serif" font-size="12.00">end_time </text>
<text text-anchor="start" x="629.34" y="-1750.04" font-family="Helvetica,sans-Serif" font-weight="bold" font-size="12.00">datetime</text>
<text text-anchor="start" x="569.34" y="-1733.04" font-family="Helvetica,sans-Serif" font-size="12.00">title </text>
<text text-anchor="start" x="596.34" y="-1733.04" font-family="Helvetica,sans-Serif" font-weight="bold" font-size="12.00">varchar</text>
<text text-anchor="start" x="569.34" y="-1716.04" font-family="Helvetica,sans-Serif" font-size="12.00">url </text>
<text text-anchor="start" x="589.34" y="-1716.04" font-family="Helvetica,sans-Serif" font-weight="bold" font-size="12.00">varchar</text>
<text text-anchor="start" x="569.34" y="-1699.04" font-family="Helvetica,sans-Serif" font-size="12.00">price </text>
<text text-anchor="start" x="603.34" y="-1699.04" font-family="Helvetica,sans-Serif" font-weight="bold" font-size="12.00">varchar</text>
<text text-anchor="start" x="569.34" y="-1682.04" font-family="Helvetica,sans-Serif" font-size="12.00">changed </text>
<text text-anchor="start" x="625.34" y="-1682.04" font-family="Helvetica,sans-Serif" font-weight="bold" font-size="12.00">datetime</text>
<text text-anchor="start" x="569.34" y="-1665.04" font-family="Helvetica,sans-Serif" font-size="12.00">content </text>
<text text-anchor="start" x="619.34" y="-1665.04" font-family="Helvetica,sans-Serif" font-weight="bold" font-size="12.00">varchar</text>
<text text-anchor="start" x="569.34" y="-1648.04" font-family="Helvetica,sans-Serif" font-size="12.00">zip_code </text>
<text text-anchor="start" x="625.34" y="-1648.04" font-family="Helvetica,sans-Serif" font-weight="bold" font-size="12.00">integer</text>
<text text-anchor="start" x="569.34" y="-1631.04" font-family="Helvetica,sans-Serif" font-size="12.00">library </text>
<text text-anchor="start" x="612.34" y="-1631.04" font-family="Helvetica,sans-Serif" font-weight="bold" font-size="12.00">varchar</text>
<text text-anchor="start" x="569.34" y="-1614.04" font-family="Helvetica,sans-Serif" font-size="12.00">image_url </text>
<text text-anchor="start" x="633.34" y="-1614.04" font-family="Helvetica,sans-Serif" font-weight="bold" font-size="12.00">varchar</text>
<text text-anchor="start" x="569.34" y="-1597.04" font-family="Helvetica,sans-Serif" font-size="12.00">teaser </text>
<text text-anchor="start" x="612.34" y="-1597.04" font-family="Helvetica,sans-Serif" font-weight="bold" font-size="12.00">varchar</text>
<text text-anchor="start" x="569.34" y="-1580.04" font-family="Helvetica,sans-Serif" font-size="12.00">street </text>
<text text-anchor="start" x="608.34" y="-1580.04" font-family="Helvetica,sans-Serif" font-weight="bold" font-size="12.00">varchar</text>
<text text-anchor="start" x="569.34" y="-1563.04" font-family="Helvetica,sans-Serif" font-size="12.00">status </text>
<text text-anchor="start" x="609.34" y="-1563.04" font-family="Helvetica,sans-Serif" font-weight="bold" font-size="12.00">integer</text>
<text text-anchor="start" x="569.34" y="-1546.04" font-family="Helvetica,sans-Serif" font-size="12.00">longitude </text>
<text text-anchor="start" x="629.34" y="-1546.04" font-family="Helvetica,sans-Serif" font-weight="bold" font-size="12.00">float</text>
<text text-anchor="start" x="569.34" y="-1529.04" font-family="Helvetica,sans-Serif" font-size="12.00">start_time </text>
<text text-anchor="start" x="634.34" y="-1529.04" font-family="Helvetica,sans-Serif" font-weight="bold" font-size="12.00">datetime</text>
<text text-anchor="start" x="569.34" y="-1512.04" font-family="Helvetica,sans-Serif" font-size="12.00">latitude </text>
<text text-anchor="start" x="618.34" y="-1512.04" font-family="Helvetica,sans-Serif" font-weight="bold" font-size="12.00">float</text>
<text text-anchor="start" x="569.34" y="-1495.04" font-family="Helvetica,sans-Serif" font-size="12.00">_id </text>
<text text-anchor="start" x="590.34" y="-1495.04" font-family="Helvetica,sans-Serif" font-weight="bold" font-size="12.00">integer</text>
<text text-anchor="start" x="569.34" y="-1478.04" font-family="Helvetica,sans-Serif" font-size="12.00">event_id </text>
<text text-anchor="start" x="624.34" y="-1478.04" font-family="Helvetica,sans-Serif" font-weight="bold" font-size="12.00">integer</text>
<text text-anchor="start" x="569.34" y="-1461.04" font-family="Helvetica,sans-Serif" font-size="12.00">stream_time </text>
<text text-anchor="start" x="648.34" y="-1461.04" font-family="Helvetica,sans-Serif" font-weight="bold" font-size="12.00">datetime</text>
<text text-anchor="start" x="569.34" y="-1444.04" font-family="Helvetica,sans-Serif" font-size="12.00">dataset_id </text>
<text text-anchor="start" x="635.34" y="-1444.04" font-family="Helvetica,sans-Serif" font-weight="bold" font-size="12.00">integer</text>
</g>
<!-- library_event_data&#45;&gt;datasets -->
<g id="edge12" class="edge">
<title>library_event_data&#45;&gt;datasets</title>
<path fill="none" stroke="black" stroke-width="0.9" d="M717.03,-1471.33C796.65,-1298.86 916.54,-1039.15 973.04,-916.74"/>
<polygon fill="black" stroke="black" stroke-width="0.9" points="975.7,-917.67 976.51,-909.23 970.61,-915.32 975.7,-917.67"/>
</g>
</g>
</svg>
